<?xml version="1.0" encoding="utf-8"?>
<!-- Svg Vector Icons : http://www.onlinewebfonts.com/icon -->
<!DOCTYPE svg PUBLIC "-//W3C//DTD SVG 1.1//EN" "http://www.w3.org/Graphics/SVG/1.1/DTD/svg11.dtd">
<svg version="1.1" xmlns="http://www.w3.org/2000/svg" xmlns:xlink="http://www.w3.org/1999/xlink" x="0px" y="0px" viewBox="0 0 1000 1000" enable-background="new 0 0 1000 1000" xml:space="preserve">
<metadata> Svg Vector Icons : http://www.onlinewebfonts.com/icon </metadata>
<g><g transform="translate(0.000000,511.000000) scale(0.100000,-0.100000)"><path d="M537.3,4046.4c-178.9-63.6-296.2-176.9-385.7-375.7L100,3561.4l6-3365.6c6-3152.9,8-3375.6,41.7-3486.9c71.6-244.5,250.5-423.4,512.9-512.9l127.2-43.7l4115.1-6c2850.7-4,4154.8,2,4244.3,15.9c367.8,59.6,644.1,339.9,727.6,735.5c23.9,119.3,27.8,538.7,23.9,2918.3l-6,2777.2l-47.7,103.4c-55.6,127.2-204.7,270.4-345.9,334c-248.5,113.3-131.2,109.3-2757.3,109.3c-2622.1,0-2518.7-4-2741.4,109.3c-53.7,25.8-184.9,131.2-292.2,230.6c-109.3,99.4-240.5,216.7-296.2,258.4c-194.8,145.1-479.1,262.4-773.3,314.1C2457.7,4086.2,630.8,4080.2,537.3,4046.4z M5777.6,1446.2c-176.9-741.5-968.1-4031.6-976.1-4055.4c-9.9-31.8-41.7-35.8-298.2-35.8h-286.3l9.9,45.7c178.9,749.5,968.1,4029.6,976.1,4055.4c9.9,29.8,41.8,33.8,298.2,33.8h286.3L5777.6,1446.2z M3944.7,136.1c-9.9-6-429.4-172.9-934.3-365.8C2503.4-424.5,2090-589.5,2090-597.5c0-7.9,413.5-176.9,920.4-377.7c505-198.8,924.4-369.8,934.3-377.7c8-6,11.9-182.9,9.9-393.6l-6-379.7l-1361.8,592.4L1225.2-941.4v334v334L2586.9,319l1361.8,592.4l6-379.7C3956.6,321,3952.7,144.1,3944.7,136.1z M7445.5,307.1l1333.9-580.5v-334v-334l-1361.8-592.4l-1361.8-592.4l-5.9,379.7c-2,210.7,2,387.7,9.9,393.6c9.9,8,429.4,178.9,936.3,377.7c505,200.8,918.4,369.8,918.4,377.7c0,8-417.5,178.9-928.4,381.7L6055.9,152l-5.9,381.7c-4,343.9-2,377.7,27.8,365.8C6095.7,893.5,6710,627.1,7445.5,307.1z"/></g></g>
</svg>